<mxfile host="65bd71144e">
    <diagram id="yfDS6i8j1x5BDUPdX7tN" name="Page-1">
        <mxGraphModel dx="1159" dy="902" grid="1" gridSize="10" guides="1" tooltips="1" connect="1" arrows="1" fold="1" page="1" pageScale="1" pageWidth="827" pageHeight="1169" math="0" shadow="0">
            <root>
                <mxCell id="0"/>
                <mxCell id="1" parent="0"/>
                <mxCell id="3" value="AppHeader" style="rounded=0;whiteSpace=wrap;html=1;" vertex="1" parent="1">
                    <mxGeometry x="260" y="120" width="270" height="60" as="geometry"/>
                </mxCell>
                <mxCell id="4" value="SearchBar" style="rounded=0;whiteSpace=wrap;html=1;" vertex="1" parent="1">
                    <mxGeometry x="260" y="200" width="270" height="60" as="geometry"/>
                </mxCell>
                <mxCell id="5" value="CharachterList" style="rounded=0;whiteSpace=wrap;html=1;verticalAlign=top;" vertex="1" parent="1">
                    <mxGeometry x="260" y="280" width="270" height="350" as="geometry"/>
                </mxCell>
                <mxCell id="6" value="Card" style="rounded=0;whiteSpace=wrap;html=1;" vertex="1" parent="1">
                    <mxGeometry x="280" y="330" width="110" height="60" as="geometry"/>
                </mxCell>
            </root>
        </mxGraphModel>
    </diagram>
</mxfile>